<?xml version="1.0" encoding="UTF-8"?>
<svg id="Ebene_1" xmlns="http://www.w3.org/2000/svg" xmlns:xlink="http://www.w3.org/1999/xlink" version="1.1" viewBox="0 0 80.9 66.3">
  <!-- Generator: Adobe Illustrator 30.1.0, SVG Export Plug-In . SVG Version: 2.1.1 Build 136)  -->
  <defs>
    <style>
      .st0 {
        fill: none;
      }

      .st1 {
        fill: #437f31;
      }

      .st2 {
        clip-path: url(#clippath);
      }
    </style>
    <clipPath id="clippath">
      <rect class="st0" x="17.5" y="12.8" width="38" height="38"/>
    </clipPath>
  </defs>
  <g id="Gruppe_2">
    <g class="st2">
      <g id="Gruppe_1">
        <path id="Pfad_1" class="st1" d="M36.4,28.1c-2.2,0-4,1.8-4,4s1.8,4,4,4,4-1.8,4-4c0-2.2-1.8-4-4-4h0"/>
        <path id="Pfad_2" class="st1" d="M45.6,25.1c-.4-1-1.2-1.9-2.3-2.3-.7-.3-1.5-.4-2.2-.4-1.3,0-1.6,0-4.8,0s-3.5,0-4.8,0c-.8,0-1.5.2-2.2.4-1,.4-1.9,1.2-2.3,2.3-.3.7-.4,1.5-.4,2.2,0,1.3,0,1.6,0,4.8s0,3.5,0,4.8c0,.8.2,1.5.4,2.2.4,1,1.2,1.9,2.3,2.3.7.3,1.5.4,2.2.4,1.3,0,1.6,0,4.8,0s3.5,0,4.8,0c.8,0,1.5-.2,2.2-.4,1-.4,1.9-1.2,2.3-2.3.3-.7.4-1.5.4-2.2,0-1.3,0-1.6,0-4.8s0-3.5,0-4.8c0-.8-.2-1.5-.4-2.2M36.4,38.2c-3.4,0-6.1-2.7-6.1-6.1,0-3.4,2.7-6.1,6.1-6.1,3.4,0,6.1,2.7,6.1,6.1h0c0,3.4-2.7,6.1-6.1,6.1h0M42.7,27.2c-.8,0-1.4-.6-1.4-1.4,0-.8.6-1.4,1.4-1.4.8,0,1.4.6,1.4,1.4h0c0,.8-.6,1.4-1.4,1.4h0"/>
        <path id="Pfad_3" class="st1" d="M36.4,13.3c-10.4,0-18.8,8.4-18.8,18.8s8.4,18.8,18.8,18.8,18.8-8.4,18.8-18.8h0c0-10.4-8.4-18.8-18.8-18.8M48.1,37c0,1-.2,2-.6,2.9-.3.8-.8,1.5-1.4,2.1-.6.6-1.3,1.1-2.1,1.4-.9.4-1.9.5-2.9.6-1.3,0-1.7,0-4.9,0s-3.6,0-4.9,0c-1,0-2-.2-2.9-.6-.8-.3-1.5-.8-2.1-1.4-.6-.6-1.1-1.3-1.4-2.1-.4-.9-.5-1.9-.6-2.9,0-1.3,0-1.7,0-4.9s0-3.6,0-4.9c0-1,.2-2,.6-2.9.3-.8.8-1.5,1.4-2.1.6-.6,1.3-1.1,2.1-1.4.9-.4,1.9-.5,2.9-.6,1.3,0,1.7,0,4.9,0s3.6,0,4.9,0c1,0,2,.2,2.9.6.8.3,1.5.8,2.1,1.4.6.6,1.1,1.3,1.4,2.1.4.9.5,1.9.6,2.9,0,1.3,0,1.7,0,4.9s0,3.6,0,4.9"/>
      </g>
    </g>
  </g>
</svg>